<?xml version="1.0" encoding="UTF-8" standalone="no"?>
<!-- Created with Inkscape (http://www.inkscape.org/) -->
<svg
   xmlns:dc="http://purl.org/dc/elements/1.1/"
   xmlns:cc="http://web.resource.org/cc/"
   xmlns:rdf="http://www.w3.org/1999/02/22-rdf-syntax-ns#"
   xmlns:svg="http://www.w3.org/2000/svg"
   xmlns="http://www.w3.org/2000/svg"
   xmlns:sodipodi="http://sodipodi.sourceforge.net/DTD/sodipodi-0.dtd"
   xmlns:inkscape="http://www.inkscape.org/namespaces/inkscape"
   version="1.0"
   width="500"
   height="600"
   id="svg2"
   sodipodi:version="0.32"
   inkscape:version="0.45.1"
   sodipodi:docname="ChoughsDiff.svg"
   inkscape:output_extension="org.inkscape.output.svg.inkscape"
   sodipodi:docbase="D:\Documents and Settings\shyamal\Desktop\BirdIllustrations">
  <metadata
     id="metadata7">
    <rdf:RDF>
      <cc:Work
         rdf:about="">
        <dc:format>image/svg+xml</dc:format>
        <dc:type
           rdf:resource="http://purl.org/dc/dcmitype/StillImage" />
      </cc:Work>
    </rdf:RDF>
  </metadata>
  <sodipodi:namedview
     inkscape:window-height="631"
     inkscape:window-width="1040"
     inkscape:pageshadow="2"
     inkscape:pageopacity="0.0"
     guidetolerance="10.0"
     gridtolerance="10.0"
     objecttolerance="10.0"
     borderopacity="1.0"
     bordercolor="#666666"
     pagecolor="#ffffff"
     id="base"
     inkscape:zoom="1.0314246"
     inkscape:cx="317.47908"
     inkscape:cy="351.30563"
     inkscape:window-x="240"
     inkscape:window-y="31"
     inkscape:current-layer="svg2"
     height="600px"
     width="500px" />
  <defs
     id="defs4" />
  <g
     id="g2190">
    <g
       id="layer1"
       transform="matrix(1.0242966,-4.8663869e-2,0.1064644,0.9679787,-181.00585,-292.7995)">
      <path
         sodipodi:nodetypes="ccccscsscccccszcscscscccccccczcsccscccccccccccs"
         id="path2170"
         style="fill:#000000"
         d="M 135.01771,729.77629 C 134.15729,723.49907 161.71812,709.47942 165.09172,696.67535 C 156.16643,702.05274 143.0781,714.24628 139.89691,708.02404 C 156.08201,696.15779 165.75667,679.52958 175.95437,663.32758 C 182.4398,646.8696 194.97101,633.62079 206.2328,619.55229 C 215.88116,607.49932 223.5431,593.01738 230.54739,579.80583 C 238.85344,564.50927 230.20774,560.02418 222.15099,555.03777 C 215.73215,551.06508 210.2053,545.04081 204.252,540.76278 C 194.62642,533.84587 179.66563,532.74111 166.92719,534.6473 C 180.55179,527.50772 179.55726,534.29872 204.77258,529.69839 C 222.5321,527.95274 248.00113,531.52108 259.20086,516.50304 C 269.67745,502.10658 280.34347,486.54152 279.4619,468.93015 C 281.97329,449.04124 290.67994,431.97399 300.07455,415.08897 C 312.499,396.69062 327.66398,379.52074 334.44138,358.65577 C 340.53234,339.90408 347.01837,336.7194 343.81445,351.08978 C 340.53366,365.80495 333.3683,377.72406 345.15002,364.62809 C 364.53693,335.16248 368.82035,340.94597 364.38141,351.08963 C 357.45208,366.92421 350.11805,370.59887 349.70145,376.81047 C 360.26045,370.48057 373.80548,351.59687 383.16377,353.6887 C 392.10736,355.68784 352.35016,386.36562 362.45286,383.95897 C 378.48739,379.10628 397.77498,362.6736 396.808,372.07549 C 395.79585,381.91653 358.95719,394.88168 370.18391,393.98888 C 380.61773,393.5776 396.06292,384.49847 395.59289,391.53289 C 394.60175,398.52991 358.86894,403.31797 390.25768,404.45825 C 406.2404,412.06553 352.49726,413.5619 381.64314,419.3887 C 396.16667,426.64021 369.72522,421.3015 375.53579,435.33288 C 373.20606,440.99054 368.03329,442.09874 371.97206,448.88825 C 371.47766,464.13867 367.89256,480.88669 360.56216,498.93037 C 352.55261,516.74811 353.07817,523.25949 338.81256,538.33474 C 318.50969,551.52787 325.38548,559.39369 348.78745,555.69695 C 372.12641,552.01016 387.98908,549.81537 387.71683,568.35384 C 387.78469,594.82758 383.69247,609.75204 367.94511,622.88915 C 352.19773,636.02625 335.45749,646.69386 324.24826,619.55941 C 319.02917,611.82637 308.6815,587.17743 297.9618,596.43845 C 298.30159,613.80457 292.20042,622.59175 285.26185,638.07685 C 272.73431,666.03503 258.06093,675.06946 255.25816,687.40862 C 250.97159,695.84238 238.4499,685.73193 243.68987,698.43217 C 245.80763,710.71289 223.61866,696.10312 230.1796,712.16223 C 232.63204,719.75696 229.45572,732.65246 219.56834,716.6254 C 215.21714,709.93852 210.15945,697.83872 210.54595,711.93191 C 211.65337,719.66217 207.66662,747.07024 201.18986,723.27905 C 199.75171,717.09557 197.45901,699.0229 193.66405,715.23492 C 193.47787,733.54785 181.31859,754.69436 183.19898,727.56518 C 182.52647,721.04246 185.41236,700.79416 177.5399,719.75347 C 173.24192,725.68121 160.67252,748.45337 154.2343,738.61954 L 172.2464,707.77996 C 172.2464,707.77996 136.45198,740.24002 135.01771,729.77629 z " />
    </g>
    <path
       id="path2163"
       d="M 62.574768,211.51951 C 56.911933,211.89469 51.986555,213.04991 47.295317,216.53287 C 58.392252,215.22043 68.603776,214.02169 77.625641,217.00756 C 77.143782,215.18707 76.614236,213.31289 76.036557,211.33605 C 71.06108,211.38298 66.618367,211.2516 62.574768,211.51951 z "
       style="fill:#d40000" />
  </g>
  <g
     id="g2162"
     transform="matrix(0.9968718,-7.9036172e-2,7.9036172e-2,0.9968718,-37.479024,-2.9516599)">
    <path
       sodipodi:nodetypes="cccccccccsscscczcccccccccssccccccccsccsccccsccsscccsccccc"
       id="path2169"
       d="M 320.43961,259.86503 C 327.86724,257.6546 335.31765,255.6547 343.10226,256.74159 C 348.21362,257.72061 352.49948,256.61794 355.32063,251.82169 C 359.64135,246.3666 363.26881,237.28745 366.2016,230.92218 C 372.81692,213.4805 380.17082,180.0956 390.09722,158.90615 C 392.11877,153.21416 394.14032,147.52217 396.16187,141.83019 C 396.75702,144.65126 395.88547,155.30325 397.41619,153.12925 C 402.70178,142.14888 406.45143,130.2604 413.80337,120.50172 C 420.92408,119.60068 408.49592,144.13308 411.45147,142.15649 C 417.85076,133.62209 422.18422,121.12905 429.89895,115.98234 C 436.7145,111.43549 427.96964,130.16532 423.17719,138.39712 C 419.93368,143.96837 420.97308,146.70189 425.05439,142.45971 C 431.44084,135.50538 441.643,119.96372 444.21375,121.5967 C 449.3488,124.85855 441.14483,136.39719 435.05919,144.0789 C 428.46649,149.02544 438.90879,146.89793 440.57277,143.24505 C 444.74467,139.64585 453.24032,125.37241 453.08844,132.44747 C 452.93656,139.52253 437.5076,153.71634 448.8258,150.26285 C 454.27125,147.093 453.52114,157.05465 450.99584,159.80139 C 444.70355,165.3708 450.80521,165.17014 451.90377,169.61517 C 453.5763,174.75324 446.87871,178.20312 449.95869,182.43073 C 453.90788,187.21314 448.68696,192.33509 447.54337,197.30607 C 450.45217,201.9952 446.90815,205.74538 446.16887,210.27462 C 448.39464,215.47382 443.98914,218.86692 442.49429,223.3396 C 440.07235,234.36053 436.19245,253.05076 431.24341,263.10544 C 428.29355,268.80174 418.1314,279.28325 414.81506,284.76661 C 436.72513,287.80898 469.57215,285.02059 477.25038,297.32123 C 489.81071,317.44307 477.70414,360.07399 441.09517,365.53474 C 430.37554,367.13373 420.93493,351.64087 393.87447,321.35821 C 388.1851,321.84585 387.17152,335.85405 385.67661,339.95351 C 382.87175,352.19587 371.34244,361.60988 364.95591,372.06996 C 357.82984,380.64529 349.29822,388.1411 343.0929,397.42363 C 342.71895,405.00592 334.74522,398.87286 334.45317,404.62363 C 334.31045,411.87639 324.46485,409.37042 321.5277,414.83771 C 319.16796,420.15263 314.80695,418.60929 310.46585,417.13418 C 307.37827,420.68899 304.73093,425.18602 299.4447,424.03543 C 294.17206,424.21175 292.67942,436.42545 289.57586,436.98105 C 288.27171,437.21449 286.49674,424.931 284.78412,430.74006 C 282.82465,434.7254 279.38807,442.48574 277.44274,442.95459 C 270.95347,446.19848 275.88248,436.58861 276.25457,433.1099 C 276.81584,427.86249 278.46362,422.70253 279.56816,417.49882 C 275.33439,424.57882 271.65291,432.14278 264.85348,436.9745 C 258.9118,442.32484 259.39029,433.7482 262.53796,428.89365 C 267.03166,418.13891 271.36605,410.77378 275.85973,400.01904 C 268.40186,408.59818 262.91979,420.21779 254.05984,426.24733 C 245.6048,432.00131 253.26049,419.56806 255.20046,415.60403 C 261.57554,405.54522 267.59975,395.26193 273.41356,384.84405 C 268.51963,390.32905 264.90861,396.57349 259.05786,400.72267 C 252.6809,405.24502 244.56107,408.94594 252.01619,399.80381 C 260.54219,389.34848 268.82533,378.77222 277.79696,368.75444 C 273.79836,371.26898 269.79975,373.78351 265.80113,376.29804 C 267.1868,370.57566 273.87877,364.98939 277.97487,359.36765 C 284.39799,352.01109 287.06015,343.60081 295.72038,336.19522 C 306.56537,326.92139 318.35522,318.58937 326.04361,307.79779 C 330.85975,300.67944 336.55738,292.50198 333.68382,283.47305 C 331.79732,279.12963 326.86592,271.92349 321.31463,266.79199 C 318.82697,263.00456 297.65681,263.2021 315.8736,261.064 C 317.3956,260.66435 318.91761,260.26469 320.43961,259.86503 z "
       style="opacity:1;fill:#000000;fill-opacity:1;fill-rule:nonzero;stroke:#000000;stroke-width:0.99999988;stroke-linecap:round;stroke-linejoin:round;stroke-miterlimit:4;stroke-dasharray:none;stroke-dashoffset:0;stroke-opacity:1" />
    <path
       id="path2177"
       d="M 319.25335,260.07925 C 315.83827,260.69142 312.87079,261.04403 311.15241,261.41382 C 303.76886,263.48537 312.56697,263.25348 316.84763,264.47867 L 319.25335,260.07925 z "
       style="opacity:1;fill:#ffff00;fill-opacity:1;fill-rule:nonzero;stroke:none;stroke-width:0.99999988;stroke-linecap:round;stroke-linejoin:round;stroke-miterlimit:4;stroke-dasharray:none;stroke-dashoffset:0;stroke-opacity:1"
       sodipodi:nodetypes="cccc" />
  </g>
  <g
     id="g2259"
     transform="translate(-16.453518,-63.071819)">
    <path
       sodipodi:nodetypes="cssssccsscszsscsc"
       id="path2164"
       d="M 77.683714,530.31686 C 77.683714,530.31686 85.850816,518.37171 97.849019,518.05989 C 122.4503,517.43314 116.2838,537.91452 136.82277,547.20051 C 161.71119,558.45295 173.47604,570.28449 200.84985,589.13748 C 231.5952,610.31252 259.01224,620.32409 261.09624,623.29802 C 266.91966,631.60821 227.607,616.54575 227.607,616.54575 L 256.40065,631.62814 C 256.40065,631.62814 261.56317,639.44617 249.2266,636.46154 C 236.89003,633.4769 226.92143,625.05291 207.05437,619.6896 C 187.18731,614.32629 177.02596,623.89029 171.21265,624.21885 C 143.73434,626.35183 121.27627,616.80953 100.85506,598.83281 C 91.067264,590.21665 85.573019,580.34002 84.691423,565.67626 C 83.751741,550.04635 85.763705,540.01293 78.428089,537.18258 C 75.163624,535.92303 72.081585,536.54574 66.964221,536.60455 C 59.353735,536.69201 52.685016,540.63476 52.685016,540.63476 C 52.685016,540.63476 55.177751,536.65327 62.033383,533.22546 C 68.889016,529.79764 77.683714,530.31686 77.683714,530.31686 z "
       style="opacity:1;fill:#000000;fill-opacity:1;fill-rule:nonzero;stroke:none;stroke-width:1;stroke-linecap:round;stroke-linejoin:round;stroke-miterlimit:4;stroke-dasharray:none;stroke-dashoffset:0;stroke-opacity:1" />
    <g
       id="g2175">
      <path
         style="opacity:1;fill:#ff0000;fill-opacity:1;fill-rule:nonzero;stroke:none;stroke-width:1;stroke-linecap:round;stroke-linejoin:round;stroke-miterlimit:4;stroke-dasharray:none;stroke-dashoffset:0;stroke-opacity:1"
         d="M 168.8149,624.41963 L 157.44429,634.17672 L 147.56243,635.73142 L 141.39237,640.18759 C 141.39237,640.18759 141.56376,642.41566 143.79184,642.24427 C 146.01992,642.07288 146.3627,639.67341 150.30469,638.13089 C 154.24668,636.58837 157.84588,637.10255 157.84588,637.10255 C 157.84588,637.10255 160.93092,638.30228 163.33039,639.50202 C 165.72986,640.70176 164.87291,642.07289 166.75821,642.92984 C 168.64351,643.7868 170.87159,642.92984 170.87159,642.92984 L 169.50046,640.18758 L 165.38708,637.44533 L 159.90257,635.38864 L 174.98497,623.0485 L 168.8149,624.41963 z "
         id="path2166"
         sodipodi:nodetypes="ccccsscsscccccc" />
      <path
         style="opacity:1;fill:#333333;fill-opacity:1;fill-rule:nonzero;stroke:none;stroke-width:1;stroke-linecap:round;stroke-linejoin:round;stroke-miterlimit:4;stroke-dasharray:none;stroke-dashoffset:0;stroke-opacity:1"
         d="M 143.73325,639.85512 L 142.76371,641.5518 C 142.76371,641.5518 141.4912,640.70346 139.85511,641.06703 C 138.21902,641.4306 136.21936,643.0061 136.21936,643.0061 C 136.21936,643.0061 138.03724,640.52167 139.61273,639.61273 C 141.18822,638.70379 143.73325,639.85512 143.73325,639.85512 z "
         id="path2171"
         sodipodi:nodetypes="ccscsc" />
      <path
         style="opacity:1;fill:#333333;fill-opacity:1;fill-rule:nonzero;stroke:none;stroke-width:1;stroke-linecap:round;stroke-linejoin:round;stroke-miterlimit:4;stroke-dasharray:none;stroke-dashoffset:0;stroke-opacity:1"
         d="M 168.8199,640.99938 L 169.78944,642.69606 C 169.78944,642.69606 171.06195,641.84772 172.69804,642.21129 C 174.33413,642.57486 176.33379,644.15036 176.33379,644.15036 C 176.33379,644.15036 174.51591,641.66593 172.94042,640.75699 C 171.36493,639.84805 168.8199,640.99938 168.8199,640.99938 z "
         id="path2173"
         sodipodi:nodetypes="ccscsc" />
    </g>
    <path
       id="path2200"
       d="M 77.948886,530.00964 C 77.867533,530.12239 77.730136,530.29089 77.730136,530.29089 C 77.730136,530.29089 68.92952,529.76932 62.073886,533.19714 C 55.218254,536.62495 52.730135,540.60338 52.730136,540.60339 C 52.730136,540.60339 59.400903,536.6596 67.011386,536.57214 C 72.12875,536.51333 75.215675,535.90636 78.480136,537.16589 C 78.565771,537.19893 78.647029,537.22464 78.730136,537.25964 L 79.917636,535.29089 L 83.011386,533.91589 L 80.948886,533.22839 L 79.230136,532.19714 L 77.948886,530.00964 z "
       style="opacity:1;fill:#d40000;fill-opacity:1;fill-rule:nonzero;stroke:none;stroke-width:1;stroke-linecap:round;stroke-linejoin:round;stroke-miterlimit:4;stroke-dasharray:none;stroke-dashoffset:0;stroke-opacity:1" />
    <g
       transform="translate(43.876048,-43.533266)"
       id="g2230">
      <path
         sodipodi:type="arc"
         style="opacity:1;fill:#b3b3b3;fill-opacity:1;fill-rule:nonzero;stroke:none;stroke-width:1;stroke-linecap:round;stroke-linejoin:round;stroke-miterlimit:4;stroke-dasharray:none;stroke-dashoffset:0;stroke-opacity:1"
         id="path2228"
         sodipodi:cx="40.175018"
         sodipodi:cy="574.7146"
         sodipodi:rx="2.6056194"
         sodipodi:ry="2.6056194"
         d="M 41.011351,572.24685 A 2.6056194,2.6056194 0 1 1 41.010666,572.24662"
         sodipodi:start="5.0391455"
         sodipodi:end="11.322053"
         sodipodi:open="true"
         transform="matrix(1.1162547,0,0,1.0930036,3.1463248,-54.298892)" />
      <path
         sodipodi:type="arc"
         style="fill:#552200;fill-opacity:1;fill-rule:nonzero;stroke:none;stroke-width:1;stroke-linecap:round;stroke-linejoin:round;stroke-miterlimit:4;stroke-dasharray:none;stroke-dashoffset:0;stroke-opacity:1"
         id="path2214"
         sodipodi:cx="20.909679"
         sodipodi:cy="544.90442"
         sodipodi:rx="3.7705979"
         sodipodi:ry="3.4278162"
         d="M 22.119939,541.65797 A 3.7705979,3.4278162 0 1 1 22.118947,541.65767"
         sodipodi:start="5.0391455"
         sodipodi:end="11.322053"
         sodipodi:open="true"
         transform="matrix(0.6818849,0,0,0.7500527,33.772152,165.02759)" />
      <path
         sodipodi:type="arc"
         style="fill:#000000;fill-opacity:1;fill-rule:nonzero;stroke:none;stroke-width:1;stroke-linecap:round;stroke-linejoin:round;stroke-miterlimit:4;stroke-dasharray:none;stroke-dashoffset:0;stroke-opacity:1"
         id="path2216"
         sodipodi:cx="21.423851"
         sodipodi:cy="570.61304"
         sodipodi:rx="2.5708623"
         sodipodi:ry="2.7422531"
         d="M 22.249028,568.01588 A 2.5708623,2.7422531 0 1 1 22.248352,568.01564"
         sodipodi:start="5.0391455"
         sodipodi:end="11.322053"
         sodipodi:open="true"
         transform="matrix(0.5769982,0,0,0.5769917,35.767516,244.49564)" />
      <path
         sodipodi:type="arc"
         style="fill:#f2f2f2;fill-opacity:1;fill-rule:nonzero;stroke:none;stroke-width:1;stroke-linecap:round;stroke-linejoin:round;stroke-miterlimit:4;stroke-dasharray:none;stroke-dashoffset:0;stroke-opacity:1"
         id="path2218"
         sodipodi:cx="28.108093"
         sodipodi:cy="588.95184"
         sodipodi:rx="1.3711265"
         sodipodi:ry="1.5425173"
         d="M 28.548188,587.49094 A 1.3711265,1.5425173 0 1 1 28.547827,587.49081"
         sodipodi:start="5.0391455"
         sodipodi:end="11.322053"
         sodipodi:open="true"
         transform="matrix(0.5769982,0,0,0.5769917,32.602966,232.82649)" />
    </g>
  </g>
  <g
     id="g2246"
     transform="translate(54.84506,-60.329566)">
    <path
       sodipodi:nodetypes="cssssccsscszsscsc"
       id="path2168"
       d="M 250.78334,538.51906 C 250.78334,538.51906 257.95828,527.74073 268.49891,527.45936 C 290.11156,526.89384 284.69419,545.37458 302.73803,553.75351 C 324.60294,563.9068 334.93857,574.58262 358.98694,591.59404 C 385.99727,610.70068 404.12137,617.98466 405.9522,620.6681 C 411.06817,628.16654 382.49356,616.32505 382.49356,616.32505 L 407.78929,629.93418 C 407.78929,629.93418 412.32465,636.98854 401.48676,634.29545 C 390.64887,631.60235 381.89128,624.00122 364.43772,619.1618 C 346.98416,614.32239 338.05724,622.95217 332.95014,623.24863 C 308.80996,625.17326 289.08016,616.56306 271.13977,600.34232 C 262.54102,592.56779 257.71423,583.65592 256.93974,570.42453 C 256.11421,556.32136 257.88175,547.26801 251.43728,544.71414 C 248.5694,543.57762 248.8429,543.26468 244.3472,543.31774 C 237.66126,543.39666 235.20968,543.89237 235.20968,543.89237 C 235.20968,543.89237 237.82546,540.73722 242.57063,539.83131 C 249.19093,538.56742 250.78334,538.51906 250.78334,538.51906 z "
       style="fill:#000000;fill-opacity:1;fill-rule:nonzero;stroke:none;stroke-width:1;stroke-linecap:round;stroke-linejoin:round;stroke-miterlimit:4;stroke-dasharray:none;stroke-dashoffset:0;stroke-opacity:1" />
    <g
       transform="matrix(0.8785175,0,0,0.9023192,182.69598,60.208602)"
       id="g2180">
      <path
         style="opacity:1;fill:#ff0000;fill-opacity:1;fill-rule:nonzero;stroke:none;stroke-width:1;stroke-linecap:round;stroke-linejoin:round;stroke-miterlimit:4;stroke-dasharray:none;stroke-dashoffset:0;stroke-opacity:1"
         d="M 168.8149,624.41963 L 157.44429,634.17672 L 147.56243,635.73142 L 141.39237,640.18759 C 141.39237,640.18759 141.56376,642.41566 143.79184,642.24427 C 146.01992,642.07288 146.3627,639.67341 150.30469,638.13089 C 154.24668,636.58837 157.84588,637.10255 157.84588,637.10255 C 157.84588,637.10255 160.93092,638.30228 163.33039,639.50202 C 165.72986,640.70176 164.87291,642.07289 166.75821,642.92984 C 168.64351,643.7868 170.87159,642.92984 170.87159,642.92984 L 169.50046,640.18758 L 165.38708,637.44533 L 159.90257,635.38864 L 174.98497,623.0485 L 168.8149,624.41963 z "
         id="path2182"
         sodipodi:nodetypes="ccccsscsscccccc" />
      <path
         style="opacity:1;fill:#333333;fill-opacity:1;fill-rule:nonzero;stroke:none;stroke-width:1;stroke-linecap:round;stroke-linejoin:round;stroke-miterlimit:4;stroke-dasharray:none;stroke-dashoffset:0;stroke-opacity:1"
         d="M 143.73325,639.85512 L 142.76371,641.5518 C 142.76371,641.5518 141.4912,640.70346 139.85511,641.06703 C 138.21902,641.4306 136.21936,643.0061 136.21936,643.0061 C 136.21936,643.0061 138.03724,640.52167 139.61273,639.61273 C 141.18822,638.70379 143.73325,639.85512 143.73325,639.85512 z "
         id="path2184"
         sodipodi:nodetypes="ccscsc" />
      <path
         style="opacity:1;fill:#333333;fill-opacity:1;fill-rule:nonzero;stroke:none;stroke-width:1;stroke-linecap:round;stroke-linejoin:round;stroke-miterlimit:4;stroke-dasharray:none;stroke-dashoffset:0;stroke-opacity:1"
         d="M 168.8199,640.99938 L 169.78944,642.69606 C 169.78944,642.69606 171.06195,641.84772 172.69804,642.21129 C 174.33413,642.57486 176.33379,644.15036 176.33379,644.15036 C 176.33379,644.15036 174.51591,641.66593 172.94042,640.75699 C 171.36493,639.84805 168.8199,640.99938 168.8199,640.99938 z "
         id="path2186"
         sodipodi:nodetypes="ccscsc" />
    </g>
    <path
       id="path2212"
       d="M 249.82614,538.67873 C 249.76539,538.68095 248.16404,538.75143 241.66989,539.99123 C 236.92472,540.89714 234.32613,544.0537 234.32614,544.05373 C 234.32614,544.05373 236.7652,543.53889 243.45114,543.45998 C 247.94684,543.40692 247.677,543.72974 250.54489,544.86623 C 250.61929,544.89571 250.69142,544.92877 250.76364,544.95998 L 251.04489,544.70998 L 251.73239,542.64748 L 253.79489,541.95998 L 251.73239,540.58498 L 249.82614,538.67873 z "
       style="fill:#ffff00;fill-opacity:1;fill-rule:nonzero;stroke:none;stroke-width:1;stroke-linecap:round;stroke-linejoin:round;stroke-miterlimit:4;stroke-dasharray:none;stroke-dashoffset:0;stroke-opacity:1" />
    <g
       transform="translate(214.23606,-36.845816)"
       id="g2236">
      <path
         sodipodi:type="arc"
         style="opacity:1;fill:#b3b3b3;fill-opacity:1;fill-rule:nonzero;stroke:none;stroke-width:1;stroke-linecap:round;stroke-linejoin:round;stroke-miterlimit:4;stroke-dasharray:none;stroke-dashoffset:0;stroke-opacity:1"
         id="path2238"
         sodipodi:cx="40.175018"
         sodipodi:cy="574.7146"
         sodipodi:rx="2.6056194"
         sodipodi:ry="2.6056194"
         d="M 41.011351,572.24685 A 2.6056194,2.6056194 0 1 1 41.010666,572.24662"
         sodipodi:start="5.0391455"
         sodipodi:end="11.322053"
         sodipodi:open="true"
         transform="matrix(1.1162547,0,0,1.0930036,3.1463248,-54.298892)" />
      <path
         sodipodi:type="arc"
         style="fill:#552200;fill-opacity:1;fill-rule:nonzero;stroke:none;stroke-width:1;stroke-linecap:round;stroke-linejoin:round;stroke-miterlimit:4;stroke-dasharray:none;stroke-dashoffset:0;stroke-opacity:1"
         id="path2240"
         sodipodi:cx="20.909679"
         sodipodi:cy="544.90442"
         sodipodi:rx="3.7705979"
         sodipodi:ry="3.4278162"
         d="M 22.119939,541.65797 A 3.7705979,3.4278162 0 1 1 22.118947,541.65767"
         sodipodi:start="5.0391455"
         sodipodi:end="11.322053"
         sodipodi:open="true"
         transform="matrix(0.6818849,0,0,0.7500527,33.772152,165.02759)" />
      <path
         sodipodi:type="arc"
         style="fill:#000000;fill-opacity:1;fill-rule:nonzero;stroke:none;stroke-width:1;stroke-linecap:round;stroke-linejoin:round;stroke-miterlimit:4;stroke-dasharray:none;stroke-dashoffset:0;stroke-opacity:1"
         id="path2242"
         sodipodi:cx="21.423851"
         sodipodi:cy="570.61304"
         sodipodi:rx="2.5708623"
         sodipodi:ry="2.7422531"
         d="M 22.249028,568.01588 A 2.5708623,2.7422531 0 1 1 22.248352,568.01564"
         sodipodi:start="5.0391455"
         sodipodi:end="11.322053"
         sodipodi:open="true"
         transform="matrix(0.5769982,0,0,0.5769917,35.767516,244.49564)" />
      <path
         sodipodi:type="arc"
         style="fill:#f2f2f2;fill-opacity:1;fill-rule:nonzero;stroke:none;stroke-width:1;stroke-linecap:round;stroke-linejoin:round;stroke-miterlimit:4;stroke-dasharray:none;stroke-dashoffset:0;stroke-opacity:1"
         id="path2244"
         sodipodi:cx="28.108093"
         sodipodi:cy="588.95184"
         sodipodi:rx="1.3711265"
         sodipodi:ry="1.5425173"
         d="M 28.548188,587.49094 A 1.3711265,1.5425173 0 1 1 28.547827,587.49081"
         sodipodi:start="5.0391455"
         sodipodi:end="11.322053"
         sodipodi:open="true"
         transform="matrix(0.5769982,0,0,0.5769917,32.602966,232.82649)" />
    </g>
  </g>
</svg>
